<?xml version="1.0" encoding="utf-8"?><svg xmlns="http://www.w3.org/2000/svg" xmlns:xlink="http://www.w3.org/1999/xlink"><symbol fill="var(--text)" viewBox="0 0 24 24" id="arrow-down" xmlns="http://www.w3.org/2000/svg"><path fill-rule="evenodd" clip-rule="evenodd" d="M11.47 18.53a.75.75 0 001.06 0l4-4a.75.75 0 10-1.06-1.06l-2.72 2.72V6a.75.75 0 00-1.5 0v10.19l-2.72-2.72a.75.75 0 00-1.06 1.06l4 4z"/></symbol><symbol fill="none" viewBox="0 0 24 24" id="layout_09" xmlns="http://www.w3.org/2000/svg"><path fill-rule="evenodd" clip-rule="evenodd" d="M22 6a4 4 0 00-4-4H6a4 4 0 00-4 4v5.25h20V6zm0 6.75H2V18a4 4 0 004 4h12a4 4 0 004-4v-5.25z" fill="#28303F"/></symbol><symbol fill="var(--text)" viewBox="0 0 24 24" id="pencil" xmlns="http://www.w3.org/2000/svg"><path fill-rule="evenodd" clip-rule="evenodd" d="M20.183 3.816a2.787 2.787 0 00-3.94 0l-1.406 1.405 3.941 3.942 1.405-1.405a2.787 2.787 0 000-3.942zm-2.465 6.407l-3.941-3.941-8.99 8.99c-.56.56-.94 1.277-1.088 2.055l-.424 2.229a1 1 0 001.17 1.17l2.228-.425a3.951 3.951 0 002.055-1.088l8.99-8.99z"/></symbol><symbol fill="var(--text)" viewBox="0 0 24 24" id="plus" xmlns="http://www.w3.org/2000/svg"><path fill-rule="evenodd" clip-rule="evenodd" d="M12.75 6a.75.75 0 00-1.5 0v5.25H6a.75.75 0 000 1.5h5.25V18a.75.75 0 001.5 0v-5.25H18a.75.75 0 000-1.5h-5.25V6z"/></symbol><symbol fill="var(--text)" viewBox="0 0 24 24" id="search-plus" xmlns="http://www.w3.org/2000/svg"><path fill-rule="evenodd" clip-rule="evenodd" d="M11.5 2.75a8.75 8.75 0 100 17.5 8.75 8.75 0 000-17.5zM1.25 11.5c0-5.66 4.59-10.25 10.25-10.25S21.75 5.84 21.75 11.5c0 2.56-.939 4.902-2.491 6.698l3.271 3.272a.75.75 0 11-1.06 1.06l-3.272-3.271A10.21 10.21 0 0111.5 21.75c-5.66 0-10.25-4.59-10.25-10.25zM11.5 6.75a.75.75 0 01.75.75v3.25h3.25a.75.75 0 010 1.5h-3.25v3.25a.75.75 0 01-1.5 0v-3.25H7.5a.75.75 0 010-1.5h3.25V7.5a.75.75 0 01.75-.75z"/></symbol></svg>